:FULLY-SPECIFIED
:FORCE-ALL-JOINTS-BE-3DOF
:DEGREES
1053
root 1.21068 15.1641 32.5681 4.91813 -3.44583 363.338
lfemur 8.38282 0.543489 5.58308
ltibia 0.981862 0 0
lfoot -30.8829 -10.9044 0
ltoes -34.3469 0 0
rfemur -30.9356 -15.592 -6.21734
rtibia 49.8712 0 0
rfoot -21.9388 5.33331 0
rtoes -41.1331 0 0
lowerback -1.84148 -0.0707598 -0.206941
upperback -0.503179 -0.0580568 -5.93186
thorax 0.509954 -0.031392 -6.03076
lowerneck -7.07859 0.755088 6.39582
upperneck 1.38304 0.323206 3.68028
head 1.6382 0.291594 0.0858861
lclavicle 1.06818e-14 -2.15777e-14 0
lhumerus -58.4981 -46.6591 115.357
lradius 55.7319 0 0
lwrist 25.479 0 0
lhand 37.468 25.2557 0
lfingers 7.12502 0 0
lthumb 60.2651 38.7543 0
rclavicle 1.06818e-14 -2.15777e-14 0
rhumerus 2.20669 -23.4311 0.569545
rradius 27.5417 0 0
rwrist -9.56384 0 0
rhand -30.6749 -42.1395 0
rfingers 7.12502 0 0
rthumb -3.96913 -792.082 0
1054
root 1.21332 15.1643 32.5731 4.92216 -3.44793 363.331
lfemur 8.37739 0.54858 5.57353
ltibia 1.02533 0 0
lfoot -30.9152 -10.8996 0
ltoes -34.3437 0 0
rfemur -30.9111 -15.5763 -6.22679
rtibia 49.8561 0 0
rfoot -21.926 5.34731 0
rtoes -41.0892 0 0
lowerback -1.85726 -0.0690192 -0.224203
upperback -0.502253 -0.0548329 -5.92959
thorax 0.520145 -0.0296171 -6.01842
lowerneck -7.07343 0.749236 6.39734
upperneck 1.36882 0.316291 3.68489
head 1.63252 0.287697 0.0868065
lclavicle 1.10447e-14 -2.20401e-14 0
lhumerus -58.4895 -46.6616 115.358
lradius 55.7312 0 0
lwrist 25.4893 0 0
lhand 37.4756 25.2656 0
lfingers 7.12502 0 0
lthumb 60.2716 38.7572 0
rclavicle 1.10447e-14 -2.20401e-14 0
rhumerus 2.18482 -23.413 0.584317
rradius 27.5402 0 0
rwrist -9.54074 0 0
rhand -30.6751 -42.1154 0
rfingers 7.12502 0 0
rthumb -3.96936 -792.058 0
1055
root 1.21585 15.1645 32.5778 4.92602 -3.44993 363.324
lfemur 8.37219 0.553465 5.56436
ltibia 1.06705 0 0
lfoot -30.9461 -10.895 0
ltoes -34.3406 0 0
rfemur -30.8876 -15.5612 -6.23585
rtibia 49.8416 0 0
rfoot -21.9137 5.36075 0
rtoes -41.047 0 0
lowerback -1.8724 -0.0673489 -0.240768
upperback -0.501364 -0.0517393 -5.9274
thorax 0.529923 -0.027914 -6.00657
lowerneck -7.06847 0.74362 6.3988
upperneck 1.35518 0.309656 3.68932
head 1.62707 0.283958 0.0876898
lclavicle 1.1393e-14 -2.24839e-14 0
lhumerus -58.4811 -46.6641 115.359
lradius 55.7306 0 0
lwrist 25.4991 0 0
lhand 37.4829 25.2751 0
lfingers 7.12502 0 0
lthumb 60.2779 38.76 0
rclavicle 1.1393e-14 -2.24839e-14 0
rhumerus 2.16385 -23.3957 0.598491
rradius 27.5387 0 0
rwrist -9.51857 0 0
rhand -30.6753 -42.0922 0
rfingers 7.12502 0 0
rthumb -3.96958 -792.035 0
1056
root 1.21826 15.1647 32.5824 4.9297 -3.45185 363.318
lfemur 8.36724 0.558117 5.55564
ltibia 1.10677 0 0
lfoot -30.9755 -10.8906 0
ltoes -34.3376 0 0
rfemur -30.8652 -15.5469 -6.24448
rtibia 49.8278 0 0
rfoot -21.902 5.37355 0
rtoes -41.0069 0 0
lowerback -1.88682 -0.0657583 -0.256543
upperback -0.500518 -0.0487933 -5.92532
thorax 0.539235 -0.0262921 -5.99529
lowerneck -7.06375 0.738273 6.40019
upperneck 1.34219 0.303337 3.69354
head 1.62188 0.280397 0.0885309
lclavicle 1.17246e-14 -2.29065e-14 0
lhumerus -58.4732 -46.6664 115.359
lradius 55.73 0 0
lwrist 25.5085 0 0
lhand 37.4899 25.2841 0
lfingers 7.12502 0 0
lthumb 60.2839 38.7627 0
rclavicle 1.17246e-14 -2.29065e-14 0
rhumerus 2.14387 -23.3792 0.611989
rradius 27.5374 0 0
rwrist -9.49747 0 0
rhand -30.6755 -42.0701 0
rfingers 7.12502 0 0
rthumb -3.96978 -792.013 0
1057
root 1.22053 15.1649 32.5867 4.93318 -3.45365 363.312
lfemur 8.36256 0.562508 5.5474
ltibia 1.14427 0 0
lfoot -31.0033 -10.8865 0
ltoes -34.3348 0 0
rfemur -30.844 -15.5333 -6.25263
rtibia 49.8148 0 0
rfoot -21.891 5.38563 0
rtoes -40.969 0 0
lowerback -1.90042 -0.0642569 -0.271433
upperback -0.499719 -0.0460124 -5.92336
thorax 0.548025 -0.0247611 -5.98463
lowerneck -7.05929 0.733225 6.4015
upperneck 1.32993 0.297372 3.69753
head 1.61697 0.277036 0.0893249
lclavicle 1.20376e-14 -2.33054e-14 0
lhumerus -58.4657 -46.6686 115.36
lradius 55.7295 0 0
lwrist 25.5174 0 0
lhand 37.4965 25.2926 0
lfingers 7.12502 0 0
lthumb 60.2895 38.7652 0
rclavicle 1.20376e-14 -2.33054e-14 0
rhumerus 2.12501 -23.3636 0.624731
rradius 27.5361 0 0
rwrist -9.47754 0 0
rhand -30.6757 -42.0492 0
rfingers 7.12502 0 0
rthumb -3.96998 -791.992 0
1058
root 1.22266 15.1651 32.5907 4.93643 -3.45534 363.306
lfemur 8.35819 0.566612 5.5397
ltibia 1.1793 0 0
lfoot -31.0293 -10.8826 0
ltoes -34.3322 0 0
rfemur -30.8242 -15.5207 -6.26024
rtibia 49.8026 0 0
rfoot -21.8807 5.39692 0
rtoes -40.9336 0 0
lowerback -1.91314 -0.0628539 -0.285347
upperback -0.498973 -0.0434139 -5.92152
thorax 0.556239 -0.0233306 -5.97468
lowerneck -7.05513 0.728509 6.40273
upperneck 1.31847 0.291799 3.70125
head 1.61239 0.273895 0.0900669
lclavicle 1.23301e-14 -2.36782e-14 0
lhumerus -58.4587 -46.6706 115.36
lradius 55.729 0 0
lwrist 25.5257 0 0
lhand 37.5027 25.3006 0
lfingers 7.12502 0 0
lthumb 60.2947 38.7676 0
rclavicle 1.23301e-14 -2.36782e-14 0
rhumerus 2.10739 -23.349 0.636637
rradius 27.5349 0 0
rwrist -9.45892 0 0
rhand -30.6759 -42.0297 0
rfingers 7.12502 0 0
rthumb -3.97016 -791.972 0
1059
root 1.22462 15.1652 32.5943 4.93943 -3.4569 363.301
lfemur 8.35416 0.5704 5.5326
ltibia 1.21165 0 0
lfoot -31.0533 -10.879 0
ltoes -34.3298 0 0
rfemur -30.806 -15.509 -6.26727
rtibia 49.7914 0 0
rfoot -21.8711 5.40734 0
rtoes -40.9009 0 0
lowerback -1.92488 -0.0615588 -0.298192
upperback -0.498284 -0.0410151 -5.91983
thorax 0.563821 -0.02201 -5.9655
lowerneck -7.05128 0.724154 6.40386
upperneck 1.3079 0.286653 3.70468
head 1.60816 0.270996 0.0907517
lclavicle 1.26002e-14 -2.40223e-14 0
lhumerus -58.4522 -46.6725 115.361
lradius 55.7285 0 0
lwrist 25.5334 0 0
lhand 37.5083 25.3079 0
lfingers 7.12502 0 0
lthumb 60.2996 38.7697 0
rclavicle 1.26002e-14 -2.40223e-14 0
rhumerus 2.09112 -23.3355 0.647627
rradius 27.5337 0 0
rwrist -9.44173 0 0
rhand -30.6761 -42.0117 0
rfingers 7.12502 0 0
rthumb -3.97033 -791.954 0
1060
root 1.2264 15.1654 32.5977 4.94215 -3.45831 363.296
lfemur 8.35049 0.573845 5.52613
ltibia 1.24107 0 0
lfoot -31.0751 -10.8758 0
ltoes -34.3276 0 0
rfemur -30.7894 -15.4984 -6.27367
rtibia 49.7811 0 0
rfoot -21.8625 5.41682 0
rtoes -40.8712 0 0
lowerback -1.93555 -0.0603809 -0.309873
upperback -0.497657 -0.0388335 -5.91829
thorax 0.570717 -0.0208089 -5.95714
lowerneck -7.04779 0.720194 6.40488
upperneck 1.29828 0.281974 3.70781
head 1.60432 0.268359 0.0913746
lclavicle 1.28457e-14 -2.43353e-14 0
lhumerus -58.4463 -46.6742 115.361
lradius 55.728 0 0
lwrist 25.5403 0 0
lhand 37.5135 25.3146 0
lfingers 7.12502 0 0
lthumb 60.304 38.7717 0
rclavicle 1.28457e-14 -2.43353e-14 0
rhumerus 2.07633 -23.3233 0.657623
rradius 27.5327 0 0
rwrist -9.4261 0 0
rhand -30.6762 -41.9954 0
rfingers 7.12502 0 0
rthumb -3.97048 -791.938 0
1061
root 1.228 15.1655 32.6007 4.94459 -3.45958 363.292
lfemur 8.34722 0.576919 5.52037
ltibia 1.26732 0 0
lfoot -31.0946 -10.8729 0
ltoes -34.3257 0 0
rfemur -30.7746 -15.4889 -6.27937
rtibia 49.772 0 0
rfoot -21.8548 5.42528 0
rtoes -40.8446 0 0
lowerback -1.94508 -0.0593297 -0.320299
upperback -0.497098 -0.0368864 -5.91691
thorax 0.576871 -0.019737 -5.94968
lowerneck -7.04467 0.71666 6.4058
upperneck 1.2897 0.277798 3.7106
head 1.60089 0.266005 0.0919305
lclavicle 1.30649e-14 -2.46146e-14 0
lhumerus -58.4411 -46.6757 115.362
lradius 55.7277 0 0
lwrist 25.5465 0 0
lhand 37.5181 25.3206 0
lfingers 7.12502 0 0
lthumb 60.3079 38.7735 0
rclavicle 1.30649e-14 -2.46146e-14 0
rhumerus 2.06313 -23.3124 0.666544
rradius 27.5318 0 0
rwrist -9.41215 0 0
rhand -30.6764 -41.9808 0
rfingers 7.12502 0 0
rthumb -3.97062 -791.923 0
1062
root 1.22938 15.1656 32.6033 4.94671 -3.46068 363.288
lfemur 8.34437 0.579596 5.51534
ltibia 1.29018 0 0
lfoot -31.1115 -10.8704 0
ltoes -34.324 0 0
rfemur -30.7617 -15.4806 -6.28434
rtibia 49.7641 0 0
rfoot -21.848 5.43264 0
rtoes -40.8215 0 0
lowerback -1.95338 -0.0584144 -0.329376
upperback -0.496611 -0.0351912 -5.91572
thorax 0.582229 -0.0188038 -5.94319
lowerneck -7.04195 0.713583 6.4066
upperneck 1.28222 0.274162 3.71302
head 1.5979 0.263956 0.0924146
lclavicle 1.32557e-14 -2.48577e-14 0
lhumerus -58.4365 -46.6771 115.362
lradius 55.7273 0 0
lwrist 25.5519 0 0
lhand 37.5221 25.3258 0
lfingers 7.12502 0 0
lthumb 60.3113 38.775 0
rclavicle 1.32557e-14 -2.48577e-14 0
rhumerus 2.05163 -23.3028 0.674311
rradius 27.531 0 0
rwrist -9.4 0 0
rhand -30.6765 -41.9681 0
rfingers 7.12502 0 0
rthumb -3.97073 -791.911 0
